<?xml version="1.0" encoding="UTF-8"?>
<svg xmlns="http://www.w3.org/2000/svg" xmlns:xlink="http://www.w3.org/1999/xlink" width="50pt" height="50pt" viewBox="0 0 50 50" version="1.1">
<g id="surface1">
<path style=" stroke:none;fill-rule:nonzero;fill:rgb(0%,0%,0%);fill-opacity:1;" d="M 45.605469 5.957031 L 16.113281 5.957031 C 13.6875 5.957031 11.71875 7.929688 11.71875 10.351562 C 11.71875 12.773438 13.6875 14.746094 16.113281 14.746094 L 45.605469 14.746094 C 48.027344 14.746094 50 12.773438 50 10.351562 C 50 7.929688 48.027344 5.957031 45.605469 5.957031 Z M 45.605469 5.957031 "/>
<path style=" stroke:none;fill-rule:nonzero;fill:rgb(0%,0%,0%);fill-opacity:1;" d="M 45.605469 20.605469 L 16.113281 20.605469 C 13.6875 20.605469 11.71875 22.578125 11.71875 25 C 11.71875 27.421875 13.6875 29.394531 16.113281 29.394531 L 45.605469 29.394531 C 48.027344 29.394531 50 27.421875 50 25 C 50 22.578125 48.027344 20.605469 45.605469 20.605469 Z M 45.605469 20.605469 "/>
<path style=" stroke:none;fill-rule:nonzero;fill:rgb(0%,0%,0%);fill-opacity:1;" d="M 45.605469 35.253906 L 16.113281 35.253906 C 13.6875 35.253906 11.71875 37.226562 11.71875 39.648438 C 11.71875 42.070312 13.6875 44.042969 16.113281 44.042969 L 45.605469 44.042969 C 48.027344 44.042969 50 42.070312 50 39.648438 C 50 37.226562 48.027344 35.253906 45.605469 35.253906 Z M 45.605469 35.253906 "/>
<path style=" stroke:none;fill-rule:nonzero;fill:rgb(0%,0%,0%);fill-opacity:1;" d="M 4.394531 5.957031 C 1.96875 5.957031 0 7.929688 0 10.351562 C 0 12.773438 1.96875 14.746094 4.394531 14.746094 C 6.816406 14.746094 8.789062 12.773438 8.789062 10.351562 C 8.789062 7.929688 6.816406 5.957031 4.394531 5.957031 Z M 4.394531 5.957031 "/>
<path style=" stroke:none;fill-rule:nonzero;fill:rgb(0%,0%,0%);fill-opacity:1;" d="M 4.394531 20.605469 C 1.96875 20.605469 0 22.578125 0 25 C 0 27.421875 1.96875 29.394531 4.394531 29.394531 C 6.816406 29.394531 8.789062 27.421875 8.789062 25 C 8.789062 22.578125 6.816406 20.605469 4.394531 20.605469 Z M 4.394531 20.605469 "/>
<path style=" stroke:none;fill-rule:nonzero;fill:rgb(0%,0%,0%);fill-opacity:1;" d="M 4.394531 35.253906 C 1.96875 35.253906 0 37.226562 0 39.648438 C 0 42.070312 1.96875 44.042969 4.394531 44.042969 C 6.816406 44.042969 8.789062 42.070312 8.789062 39.648438 C 8.789062 37.226562 6.816406 35.253906 4.394531 35.253906 Z M 4.394531 35.253906 "/>
</g>
</svg>
